<?xml version="1.0" standalone="no"?>
<!DOCTYPE svg PUBLIC "-//W3C//DTD SVG 20010904//EN"
 "http://www.w3.org/TR/2001/REC-SVG-20010904/DTD/svg10.dtd">
<svg version="1.0" xmlns="http://www.w3.org/2000/svg"
 width="1280.000000pt" height="640.000000pt" viewBox="0 0 1280.000000 640.000000"
 preserveAspectRatio="xMidYMid meet">
<metadata>
Created by potrace 1.15, written by Peter Selinger 2001-2017
</metadata>
<g transform="translate(0.000000,640.000000) scale(0.100000,-0.100000)"
fill="#272a31" stroke="none">
<path d="M4338 5329 c-61 -80 -100 -113 -200 -169 -45 -24 -58 -51 -93 -197
-14 -58 -30 -112 -36 -120 -7 -7 -31 -13 -55 -13 -40 0 -44 -2 -44 -24 0 -14
5 -28 10 -31 15 -9 12 -171 -6 -254 -19 -96 -54 -344 -54 -391 0 -20 -9 -63
-20 -95 -49 -141 -53 -195 -35 -426 19 -241 15 -380 -14 -484 -40 -141 -53
-217 -57 -309 -2 -59 -11 -122 -24 -168 -22 -72 -91 -243 -113 -280 -12 -20
-12 -21 47 -64 11 -7 17 -17 13 -21 -4 -4 -14 2 -22 14 -8 11 -34 26 -59 32
-25 6 -48 15 -51 21 -3 5 -15 10 -26 10 -18 0 -15 9 26 89 56 108 58 126 21
361 -25 154 -71 329 -100 375 -7 11 -16 45 -19 75 -6 68 -34 217 -42 230 -14
23 -25 -5 -25 -63 0 -68 -8 -66 -35 8 -20 55 -51 105 -66 105 -16 0 -10 -39
17 -101 31 -75 25 -87 -12 -22 -58 103 -75 126 -87 114 -8 -8 -5 -23 11 -56
26 -54 27 -62 7 -45 -33 27 -26 -4 21 -97 l49 -98 -2 -362 -2 -362 -26 -39
c-15 -23 -42 -47 -66 -58 -23 -10 -52 -32 -65 -49 -15 -20 -40 -37 -66 -44
-24 -7 -65 -24 -92 -37 -27 -14 -50 -23 -50 -22 -1 2 -10 15 -19 30 -12 19
-17 49 -17 95 0 43 -7 82 -18 105 -19 40 -90 121 -116 131 -20 8 -20 36 0 136
l16 80 -36 66 c-34 60 -40 65 -71 65 -46 0 -95 -42 -95 -81 0 -19 5 -29 15
-29 12 0 15 -16 15 -80 l0 -81 -50 7 c-49 6 -51 6 -95 -38 l-45 -45 -10 36
c-23 83 -58 316 -61 408 -1 13 11 37 25 54 14 17 26 37 26 44 0 8 14 30 31 49
28 33 32 56 8 56 -6 0 -25 -16 -43 -35 -54 -60 -89 -25 -101 100 -9 93 -13
107 -33 103 -14 -3 -17 -16 -17 -67 0 -35 -4 -66 -10 -67 -5 -2 -31 30 -57 71
-64 101 -93 98 -48 -5 l20 -45 -37 43 c-35 39 -73 56 -73 32 0 -5 16 -32 35
-59 45 -63 44 -78 -2 -46 -37 25 -63 32 -63 17 0 -4 27 -31 60 -60 36 -32 74
-78 96 -117 l36 -65 -22 -18 c-19 -15 -20 -21 -9 -47 6 -17 15 -95 19 -175 5
-80 13 -158 20 -175 6 -16 18 -67 26 -113 8 -46 19 -94 25 -109 5 -14 6 -53 3
-88 l-7 -63 -41 4 c-42 4 -40 0 5 -10 15 -3 29 -15 32 -26 4 -16 -6 -28 -50
-56 -30 -19 -53 -38 -50 -41 3 -3 22 5 42 17 41 25 60 20 21 -5 -14 -10 -26
-22 -26 -28 0 -5 8 -3 18 6 33 30 48 22 44 -25 -2 -24 -10 -50 -17 -58 -25
-31 -27 -44 -3 -22 33 30 38 28 38 -17 0 -54 -17 -65 -88 -58 -54 6 -132 -8
-132 -23 0 -25 -207 42 -218 71 -2 5 -9 6 -15 2 -7 -3 -9 -3 -5 2 4 4 3 14 -4
22 -6 7 -8 17 -4 21 4 4 14 -2 22 -12 12 -17 14 -17 14 -3 0 9 -7 35 -16 57
-11 27 -14 52 -9 78 15 83 3 238 -23 288 -37 73 -125 134 -192 134 -27 0 -115
-47 -142 -76 -37 -40 -48 -75 -48 -154 0 -40 -5 -72 -11 -76 -16 -10 -5 -91
16 -114 10 -11 15 -26 11 -35 -4 -11 -2 -14 6 -9 8 5 9 -3 5 -29 -3 -23 -1
-38 6 -41 9 -5 9 -7 0 -12 -7 -3 -13 -10 -13 -15 0 -6 5 -7 10 -4 6 3 10 -1
10 -9 0 -10 -23 -19 -77 -31 -43 -9 -84 -18 -90 -20 -8 -3 -13 -24 -13 -57 l0
-53 -81 -60 c-85 -62 -170 -148 -195 -197 -11 -22 -15 -69 -17 -191 -2 -187
-12 -220 -69 -232 -18 -4 -71 -25 -118 -48 -47 -22 -114 -51 -150 -64 l-65
-23 5468 0 5467 0 10 26 c6 14 10 36 10 50 0 17 6 24 19 24 11 0 23 5 26 10
12 20 23 9 48 -50 l26 -60 456 0 c391 0 455 2 455 15 0 7 -8 19 -17 24 -16 9
-16 12 -3 21 8 5 20 11 25 13 6 2 5 10 -3 19 -8 10 -38 19 -74 23 l-60 7 28
18 c35 24 49 49 35 63 -14 14 -133 -39 -178 -81 -34 -31 -39 -32 -116 -32 -68
0 -84 3 -103 21 -14 13 -38 21 -66 23 -58 3 -130 48 -158 98 -12 21 -28 42
-37 46 -8 5 -28 38 -44 73 -25 56 -28 76 -29 161 0 154 -8 161 -190 184 -141
18 -227 55 -222 96 1 14 -5 44 -13 68 -18 50 -20 106 -4 116 7 4 9 19 4 43 -4
20 -9 65 -10 101 -2 69 -23 122 -70 178 l-26 31 58 118 c32 65 60 120 63 123
3 3 17 22 33 42 15 20 36 40 47 43 28 9 25 41 -5 61 -14 9 -25 23 -25 31 0 25
74 152 91 156 21 6 62 95 53 116 -4 9 -6 24 -5 34 1 9 -5 20 -13 23 -9 3 -13
10 -10 16 3 5 -3 12 -15 15 -22 6 -27 18 -11 28 18 11 10 25 -14 25 -35 0 -92
-79 -108 -149 -6 -31 -26 -90 -43 -131 -28 -68 -33 -74 -60 -75 -23 0 -30 -6
-37 -30 -10 -39 -128 -271 -181 -355 -59 -96 -105 -168 -148 -233 -22 -32 -39
-62 -39 -66 0 -4 -9 -16 -20 -26 -11 -10 -20 -23 -20 -29 0 -20 -15 -34 -43
-41 -22 -6 -27 -4 -27 11 0 33 -69 247 -100 311 -35 70 -74 108 -128 123 -104
28 -175 -2 -241 -104 -75 -115 -96 -221 -65 -325 16 -56 14 -67 -11 -58 -9 4
-15 18 -15 36 0 16 -6 31 -14 34 -11 4 -13 16 -9 40 3 22 -1 46 -12 67 -14 28
-16 48 -11 110 4 41 10 120 12 175 3 55 9 116 14 135 5 19 11 82 15 140 7 127
24 240 39 259 8 10 5 18 -13 32 -21 17 -22 24 -16 71 12 97 18 105 104 131 65
20 77 27 80 48 5 36 -21 159 -33 159 -7 0 -28 -20 -49 -44 -35 -42 -102 -94
-139 -109 -20 -7 -44 -60 -59 -127 -27 -122 -26 -120 -71 -120 -39 0 -40 -1
-33 -27 16 -64 15 -125 -3 -228 -11 -61 -26 -155 -32 -210 -7 -55 -23 -142
-37 -194 -25 -91 -25 -97 -14 -245 6 -83 11 -169 11 -191 l-1 -40 -24 28 c-14
15 -25 33 -25 40 1 7 10 1 20 -12 25 -29 26 -12 4 53 -10 30 -14 60 -10 84 9
51 9 64 -1 167 -5 50 -16 101 -23 115 -42 80 -112 130 -181 130 -45 0 -131
-43 -163 -81 -28 -33 -51 -126 -43 -175 3 -19 1 -36 -4 -39 -16 -10 -10 -79
10 -116 15 -28 17 -39 8 -48 -9 -9 -8 -11 7 -5 17 7 18 4 13 -24 -4 -17 -2
-34 4 -38 6 -4 5 -11 -3 -22 -10 -12 -10 -14 0 -8 8 5 12 1 12 -12 0 -15 -12
-21 -65 -30 -36 -7 -78 -15 -94 -18 l-30 -6 18 48 c10 27 26 67 35 90 12 29
14 47 7 65 -5 15 -6 44 0 72 10 53 10 241 1 307 -10 63 9 199 40 300 15 47 34
140 43 208 17 137 25 162 101 316 30 60 54 113 54 117 0 21 -21 6 -41 -31 -34
-59 -38 -49 -13 28 13 37 24 75 24 85 0 37 -24 10 -43 -47 -21 -63 -35 -71
-18 -9 6 21 11 53 11 71 0 55 -23 32 -38 -39 -22 -99 -36 -99 -27 0 5 66 4 82
-6 79 -13 -4 -16 -15 -38 -120 -7 -32 -21 -68 -31 -80 l-18 -23 -20 46 c-11
25 -27 49 -36 52 -9 4 -16 4 -16 1 0 -17 45 -174 56 -196 8 -15 14 -40 14 -57
0 -29 -38 -181 -58 -231 -12 -31 -98 -376 -110 -445 -8 -44 -27 -122 -39 -165
-4 -12 -6 -12 -15 3 -6 13 -6 33 1 65 12 49 7 142 -8 171 -15 26 -63 67 -105
89 -49 27 -135 24 -174 -5 -55 -41 -87 -100 -92 -171 l-5 -67 -17 36 c-10 20
-25 39 -33 43 -8 3 -15 14 -15 25 0 11 -7 32 -15 48 -37 71 -67 164 -75 233
-5 46 -23 112 -45 170 -20 52 -54 145 -74 205 l-36 110 0 195 c-1 197 -14 300
-40 300 -17 0 -37 -42 -34 -71 1 -13 1 -51 0 -84 l-3 -60 -15 63 c-8 34 -18
62 -22 62 -15 0 -12 -301 3 -350 8 -25 17 -90 21 -145 12 -190 59 -422 132
-661 31 -100 33 -116 23 -151 -12 -39 -11 -40 39 -107 28 -37 51 -73 51 -80 0
-32 -133 24 -169 70 -12 15 -19 30 -15 33 3 3 12 -3 20 -13 19 -27 19 -2 -1
54 -18 50 -20 106 -4 116 7 4 9 19 4 43 -4 20 -9 66 -10 102 -4 154 -141 275
-257 228 -112 -45 -148 -97 -148 -213 0 -44 -5 -78 -11 -82 -17 -10 -4 -95 17
-111 33 -24 6 -24 -29 0 -35 24 -132 54 -249 77 -32 6 -58 15 -58 19 0 5 7 28
16 52 32 90 62 224 55 244 -4 11 -4 31 0 45 15 53 9 97 -23 161 -30 58 -37 65
-77 76 -25 7 -49 17 -55 23 -5 5 -38 10 -73 10 -60 0 -65 -2 -104 -41 -49 -49
-86 -125 -95 -196 -3 -29 -10 -56 -15 -59 -18 -10 -9 -60 21 -114 27 -51 41
-130 22 -130 -4 0 -49 31 -101 69 -124 93 -189 166 -238 271 -21 47 -65 128
-96 181 -77 131 -125 234 -133 284 -3 26 1 77 11 128 l17 85 -37 66 c-34 61
-39 66 -70 66 -46 0 -95 -42 -95 -81 0 -19 5 -29 15 -29 12 0 15 -15 15 -74 0
-55 8 -98 30 -166 17 -50 30 -97 30 -104 0 -45 127 -460 187 -611 40 -101 125
-248 160 -275 l22 -17 -24 -109 c-14 -60 -25 -113 -25 -117 0 -16 -90 3 -144
30 -51 25 -94 68 -81 81 4 4 13 -2 21 -12 19 -27 18 -11 -7 63 -20 60 -21 64
-5 100 13 29 15 43 7 65 -6 15 -11 54 -11 87 0 73 -27 135 -80 183 -75 67
-151 71 -240 11 l-50 -34 6 57 c10 90 42 249 56 279 8 18 22 29 38 31 69 8 89
30 101 112 4 25 -12 50 -31 50 -10 0 -20 10 -23 22 -6 20 -8 19 -54 -20 -93
-80 -100 -90 -119 -160 -20 -77 -40 -122 -107 -243 -43 -79 -51 -87 -83 -94
-20 -3 -38 -4 -41 -2 -2 3 -15 69 -28 148 -23 138 -62 281 -89 324 -7 11 -16
45 -19 75 -8 72 -35 219 -43 231 -14 23 -23 4 -26 -53 l-3 -63 -22 50 c-33 74
-59 119 -72 123 -19 6 -12 -46 15 -109 14 -34 23 -63 21 -66 -3 -2 -21 27 -42
64 -39 71 -62 103 -77 103 -14 0 -9 -29 12 -70 11 -22 20 -42 20 -46 0 -4 -9
1 -20 11 -32 29 -25 0 24 -100 24 -49 47 -100 51 -113 6 -21 4 -23 -22 -20
-20 2 -29 9 -31 26 -5 31 -21 27 -36 -9 -7 -17 -24 -36 -37 -43 -13 -6 -25
-20 -27 -31 -2 -11 -17 -32 -33 -47 -16 -15 -29 -34 -29 -42 0 -8 -36 -90 -80
-183 -90 -187 -122 -289 -114 -361 l5 -47 -19 35 c-20 37 -104 130 -117 130
-4 0 -25 16 -46 35 -22 19 -48 35 -59 35 -11 0 -20 6 -20 13 0 21 60 107 91
130 36 26 36 40 2 67 l-28 22 39 74 c22 41 45 74 52 74 21 0 54 84 47 124 -3
20 -10 36 -14 36 -5 0 -9 7 -9 15 0 9 -7 18 -15 21 -12 5 -13 9 -4 20 16 19 5
28 -24 20 -34 -8 -74 -65 -88 -123 -12 -48 -38 -119 -66 -180 -13 -28 -18 -31
-34 -22 -15 8 -21 6 -25 -8 -10 -27 -44 -106 -55 -123 -5 -8 -28 -52 -51 -97
-23 -46 -45 -83 -49 -83 -3 0 -11 25 -18 56 l-11 57 34 37 c29 32 138 187 157
223 4 7 12 30 19 52 17 53 77 139 135 195 68 65 142 215 156 317 12 83 42 158
155 389 35 71 64 136 64 142 0 7 4 12 9 12 5 0 22 20 37 44 16 25 44 53 64 63
49 26 50 52 0 92 l-41 32 53 100 c29 54 58 99 64 99 40 0 107 155 75 174 -4 3
-6 17 -4 31 4 17 0 27 -11 31 -9 3 -16 12 -16 19 0 7 -10 19 -22 28 -23 15
-23 15 -3 30 27 21 9 38 -30 29 -61 -14 -122 -105 -139 -209 -4 -23 -26 -88
-49 -145 l-42 -103 -40 0 c-37 0 -39 -2 -47 -39 -8 -36 -21 -67 -61 -141 -8
-16 -43 -84 -77 -150 -34 -66 -72 -133 -84 -150 -12 -16 -44 -67 -70 -112 -26
-46 -52 -86 -57 -89 -5 -3 -16 -20 -24 -37 -22 -48 -123 -200 -139 -209 -8 -5
-17 -21 -21 -37 -7 -33 -29 -56 -63 -64 -18 -4 -23 0 -28 21 -3 15 -26 95 -51
177 -89 300 -152 380 -315 400 -104 13 -172 -30 -259 -163 -80 -122 -108 -244
-86 -374 7 -40 6 -48 -7 -48 -9 0 -16 7 -16 15 0 8 -9 15 -20 15 -17 0 -19 5
-14 44 5 30 1 58 -11 90 -15 38 -17 64 -11 148 3 57 9 159 11 228 3 69 12 150
20 180 7 30 17 124 21 208 3 84 11 155 15 158 5 3 9 28 9 56 0 27 7 65 16 84
13 27 14 37 4 49 -7 8 -19 15 -26 15 -17 0 -17 17 -3 115 6 42 19 84 28 95 9
10 59 32 111 49 l95 30 -3 83 c-1 45 -7 87 -12 92 -6 6 -10 23 -10 38 0 37
-22 36 -52 -3z m1533 -2191 c2 -7 3 -106 1 -220 l-3 -208 -44 0 c-24 0 -67 -5
-95 -11 -27 -6 -54 -9 -58 -7 -13 5 17 186 43 265 14 39 25 81 25 93 0 26 39
66 83 85 40 18 44 18 48 3z m514 -603 c-6 -62 -4 -79 10 -101 9 -14 15 -34 12
-44 -3 -14 -1 -17 11 -13 12 5 14 1 9 -25 -4 -18 -2 -34 4 -38 6 -4 4 -13 -7
-25 -16 -18 -16 -19 -1 -13 11 4 17 1 17 -9 0 -10 -22 -19 -75 -29 -81 -16
-79 -18 -69 45 9 50 27 48 22 -3 -4 -43 5 -52 22 -21 14 27 13 65 -4 104 -12
29 -10 43 17 140 16 59 31 107 34 107 3 0 2 -34 -2 -75z m-902 -152 c4 -38 3
-43 -14 -43 -22 0 -25 24 -9 66 13 33 16 30 23 -23z m-1695 -273 c42 -11 42
-11 42 -58 0 -47 -19 -121 -44 -177 -8 -16 -17 -61 -21 -98 -5 -50 -10 -67
-20 -64 -7 3 -33 8 -58 12 -25 4 -53 12 -62 19 -14 10 -14 15 1 56 30 84 62
224 54 244 -4 11 -3 37 3 57 8 35 11 37 35 29 15 -5 46 -14 70 -20z m-558 -92
c0 -7 13 -38 30 -68 29 -54 41 -135 19 -128 -25 8 -148 104 -149 116 0 13 79
92 93 92 4 0 7 -6 7 -12z m6061 -211 c-20 -20 -23 2 -10 55 l14 53 3 -49 c2
-27 -1 -53 -7 -59z m2009 48 c0 -8 -4 -15 -9 -15 -5 0 -11 7 -15 15 -3 9 0 15
9 15 8 0 15 -7 15 -15z m-6496 -334 c4 -27 2 -70 -4 -96 -11 -51 -38 -120 -44
-114 -4 4 13 209 20 247 7 36 21 17 28 -37z m-2749 -182 c9 -14 2 -19 -39 -29
-32 -7 -36 -6 -36 12 0 10 3 17 8 15 4 -3 16 -1 27 4 28 11 33 11 40 -2z m-75
-109 c0 -16 -4 -30 -10 -30 -11 0 -14 43 -3 53 11 12 13 8 13 -23z"/>
<path d="M174 1136 c-18 -47 44 -86 136 -86 l65 1 -39 23 c-21 14 -55 27 -75
31 -20 4 -46 16 -58 27 -20 19 -23 19 -29 4z"/>
</g>
</svg>
